<svg id="Capa_1" enable-background="new 0 0 512.012 512.012" height="512" viewBox="0 0 512.012 512.012" width="512" xmlns="http://www.w3.org/2000/svg"><g><g><path d="m414.174 119.329c-2.399-.9-5.116-.552-7.271.836-70.948 45.72-110.922 22.75-150.898 62.725l-16.248 32.496 16.248 40.62 219.347-113.735z" fill="#faf5dc"/><path d="m105.108 120.165c-2.154-1.388-4.871-1.736-7.271-.836l-61.179 22.942 219.347 113.735v-73.116c-39.974-39.975-79.949-17.005-150.897-62.725z" fill="#f5ebcd"/><path d="m8.464 133.19 7.648-14.336c2.112-3.958 7.032-5.456 10.991-3.344l473.101 252.32c3.959 2.111 5.457 7.033 3.345 10.992l-7.648 14.337c-2.112 3.958-7.032 5.456-10.991 3.344l-188.499-100.533-5.406-14.798-16.668 3.025-262.528-140.015c-3.96-2.111-5.457-7.033-3.345-10.992z" fill="#ecbd83"/><path d="m215.6 216.042c-6.184 6.271-10.958 14.018-13.724 22.798l-6.292 3.356 100.827 53.775c6.183-6.271 10.958-14.018 13.724-22.798l6.292-3.356z" fill="#e2a975"/><path d="m503.548 133.19-7.648-14.336c-2.112-3.958-7.032-5.456-10.991-3.344l-204.899 109.279c-4.105 2.189-8.888 2.176-13.266.601-3.356-1.207-6.962-1.88-10.738-1.88-15.179 0-27.856 10.427-31.408 24.5-1.123 4.45-3.787 8.352-7.836 10.512l-204.954 109.308c-3.959 2.111-5.457 7.033-3.345 10.992l7.648 14.337c2.112 3.958 7.032 5.456 10.991 3.344l204.899-109.28c4.105-2.19 8.888-2.176 13.266-.601 3.356 1.207 6.963 1.88 10.738 1.88 15.179 0 27.856-10.427 31.408-24.5 1.123-4.45 3.787-8.352 7.836-10.512l204.953-109.308c3.96-2.111 5.458-7.033 3.346-10.992z" fill="#ecbd83"/></g><g><path d="m511.328 370.45c-1.215-3.993-3.913-7.274-7.595-9.238l-197.262-105.206 197.262-105.206c3.682-1.964 6.379-5.245 7.594-9.238s.802-8.219-1.162-11.902l-7.648-14.337c-4.055-7.601-13.538-10.486-21.137-6.432l-30.066 16.035-38.371-14.069c-2.246-.824-4.751-.526-6.742.801-35.727 23.817-63.225 29.544-87.486 34.597-22.833 4.755-42.804 8.914-62.709 26.36-19.905-17.446-39.876-21.604-62.709-26.36-24.261-5.052-51.759-10.78-87.486-34.597-1.991-1.328-4.495-1.625-6.742-.801l-38.371 14.07-30.066-16.035c-7.601-4.053-17.083-1.168-21.137 6.432l-7.648 14.336c-1.965 3.682-2.377 7.91-1.163 11.903 1.215 3.993 3.913 7.274 7.595 9.238l197.261 105.205-197.262 105.206c-3.682 1.964-6.379 5.245-7.594 9.238s-.802 8.22 1.163 11.902l7.648 14.337c2.809 5.266 8.223 8.268 13.812 8.268 2.478 0 4.991-.591 7.326-1.836l204.9-109.28c2.679-1.429 5.66-.714 7.198-.161 4.285 1.541 8.751 2.323 13.276 2.323 18.024 0 33.724-12.049 38.469-29.394l202.199 107.84c.057.03.228.122.303.369s-.016.419-.046.476l-7.648 14.336c-.162.304-.541.419-.844.257l-178.312-95.1c-3.655-1.949-8.198-.567-10.147 3.088s-.566 8.198 3.088 10.147l178.312 95.1c2.335 1.245 4.847 1.836 7.326 1.836 5.588 0 11.003-3.003 13.812-8.268l7.648-14.336c1.963-3.684 2.375-7.911 1.161-11.904zm-189.555-209.509c23.643-4.924 52.907-11.019 89.549-34.701l22.241 8.155-157.083 83.776c-2.68 1.429-5.661.714-7.198.162-1.893-.681-3.823-1.204-5.776-1.587v-30.673c17.792-16.695 35.758-20.445 58.267-25.132zm-306.738-23.745c-.075-.247.016-.419.046-.476l7.648-14.336c.162-.304.541-.419.844-.257l74.496 39.731c3.653 1.948 8.197.567 10.147-3.088 1.949-3.655.566-8.198-3.088-10.147l-26.679-14.229 22.241-8.155c36.642 23.682 65.906 29.777 89.549 34.701 22.509 4.688 40.475 8.438 58.267 25.133v30.653c-3.397.648-6.654 1.727-9.708 3.188l-101.133-53.938c-3.655-1.948-8.198-.567-10.147 3.088s-.566 8.198 3.088 10.147l95.117 50.729c-3.754 4.381-6.588 9.623-8.186 15.464l-202.199-107.839c-.057-.03-.228-.122-.303-.369zm265.107 124.97c-2.799 11.09-12.725 18.835-24.136 18.835-2.789 0-5.548-.484-8.2-1.437-6.694-2.408-13.561-2.038-19.333 1.041l-204.9 109.28c-.302.163-.682.046-.844-.257l-7.648-14.337c-.03-.056-.122-.228-.046-.475.075-.247.247-.339.303-.369l204.953-109.308c5.751-3.067 9.863-8.499 11.579-15.294 2.799-11.09 12.725-18.835 24.136-18.835 2.79 0 5.548.484 8.2 1.437 6.694 2.408 13.561 2.037 19.333-1.041l204.9-109.279c.303-.162.682-.046.844.257l7.648 14.336c.03.057.122.228.046.475s-.247.339-.303.369l-204.953 109.309c-5.751 3.067-9.863 8.498-11.579 15.293z"/><path d="m256.087 248.506h-.081c-4.142 0-7.459 3.358-7.459 7.5s3.398 7.5 7.541 7.5c4.142 0 7.5-3.358 7.5-7.5-.001-4.142-3.359-7.5-7.501-7.5z"/></g></g></svg>